<svg width="520" height="144" viewBox="0 0 520 144" fill="none" xmlns="http://www.w3.org/2000/svg" role="img" aria-labelledby="title desc">
  <title id="title">Nerum Finance logo dark</title>
  <desc id="desc">Logo horizontal de Nerum Finance para superficies oscuras.</desc>
  <defs>
    <linearGradient id="nerum-mark-horizontal-dark" x1="18" y1="17" x2="111" y2="112" gradientUnits="userSpaceOnUse">
      <stop stop-color="#A9DED1"/>
      <stop offset="1" stop-color="#74C7B7"/>
    </linearGradient>
    <linearGradient id="nerum-leaf-horizontal-dark" x1="69" y1="56" x2="101" y2="83" gradientUnits="userSpaceOnUse">
      <stop stop-color="#A8DCC1"/>
      <stop offset="1" stop-color="#168570"/>
    </linearGradient>
  </defs>
  <rect width="520" height="144" rx="28" fill="#0E1412"/>
  <g transform="translate(24 8)">
    <path d="M35.5 103.5C23.2 94 17 80.8 17 64C17 34.3 36.6 15 64 15C91.4 15 111 34.3 111 64C111 93.7 91.4 113 64 113C51.4 113 41.3 109.7 32.8 102.9" stroke="url(#nerum-mark-horizontal-dark)" stroke-width="8.5" stroke-linecap="round"/>
    <path d="M39 86V45.5C39 39.4 46.2 36.3 50.7 40.4L78.2 65.6C83.7 70.7 92.5 66.8 92.5 59.3V42" stroke="#F4F0E8" stroke-width="8.5" stroke-linecap="round" stroke-linejoin="round"/>
    <path d="M70.8 76.4C74.1 62.2 85 53.9 100 55.8C98.5 70.8 87 80.8 70.8 76.4Z" fill="url(#nerum-leaf-horizontal-dark)"/>
    <path d="M74.8 72.8C81.4 68.4 88.2 64.7 96 60.6" stroke="#0E1412" stroke-width="2.4" stroke-linecap="round" opacity=".8"/>
  </g>
  <text x="166" y="74" fill="#F4F0E8" font-family="Satoshi, Inter, ui-sans-serif, system-ui, -apple-system, BlinkMacSystemFont, Segoe UI, sans-serif" font-size="58" font-weight="650" letter-spacing="-1.4">Nerum</text>
  <text x="170" y="107" fill="#A8DCC1" font-family="Satoshi, Inter, ui-sans-serif, system-ui, -apple-system, BlinkMacSystemFont, Segoe UI, sans-serif" font-size="28" font-weight="500" letter-spacing="9">finance</text>
</svg>
